<svg id="Layer_1" data-name="Layer 1" xmlns="http://www.w3.org/2000/svg" viewBox="0 0 279.19 404.5"><defs><style>.cls-1{fill:none;stroke:#4a4b51;stroke-miterlimit:10;stroke-width:25px;}.cls-2{fill:#3a3b3f;}.cls-3{fill:#72747a;}</style></defs><title>lock_locked_2</title><path class="cls-1" d="M140.3,12.5h0A82.49,82.49,0,0,1,222.79,95V239.52a0,0,0,0,1,0,0h-165a0,0,0,0,1,0,0V95A82.49,82.49,0,0,1,140.3,12.5Z"/><circle class="cls-2" cx="139.6" cy="264.9" r="139.6"/><circle class="cls-3" cx="139.6" cy="264.9" r="91.65"/><path class="cls-2" d="M281.38,298.82a25.41,25.41,0,0,1-14.26,22.83L263.9,351H248.1l-3.22-29.35a25.39,25.39,0,1,1,36.5-22.83Z" transform="translate(-116.4 -47.5)"/></svg>